<svg height="53" viewBox="0 0 391 53" width="391" xmlns="http://www.w3.org/2000/svg"><g fill="none" fill-rule="evenodd" transform=""><g fill="#00fff9"><path d="m.08010101 40.489321 24.95451529 12.4808221 10.9351886-5.4385359-25.0229107-12.4464141z"/><path d="m.04323733 26.4850102 39.11703887 19.4588112 10.8952643-5.4185237-39.1169741-19.4593277z"/><path d="m39.117 31.9106674 10.9046469-5.425173-10.8965585-5.4194921-10.9034174 5.4261413z"/></g><path d="m0 12.4519659 25.031258 12.4524178 10.9047115-5.425173-25.0342992-12.44938366z" fill="#37ff8b"/><path d="m39.1250884 17.891425 10.9397828-5.4394397-10.9026409-5.42213889-10.9405593 5.43905239z" fill="#37ff8b"/><path d="m25.0312903-.00001937-10.9385534 5.44311937 10.940624 5.4385359 10.9387476-5.4385359z" fill="#37ff8b"/><g fill="#fff" transform="translate(63.995394 5.977419)"><path d="m31.6062117 7.8596435c-2.8778812-2.73972032-6.8292198-4.07595083-11.0484877-4.07595083-8.9739365 0-16.27471179 6.54782193-16.27471179 16.77004923 0 10.2229584 7.30077529 16.7705976 16.27471179 16.7705976 4.2192679 0 8.371668-1.2692454 11.2491827-3.9422547v4.7443403c-3.1469096 1.8709237-7.1637421 2.9400361-11.1823149 2.9400361-12.05535224 0-20.56093913-8.3520347-20.56093913-20.5127193 0-12.22684723 9.10776368-20.51198812 20.56093913-20.51198812 4.0185728 0 7.7677508 1.06911234 10.9816199 3.00683848z"/><path d="m54.8471398 4.0509205-8.3048003 21.9147469h16.6765599zm-9.5761133 25.389659-4.1524001 10.9574191h-4.2862273l15.4030484-39.68783714h5.2917179l15.6037436 39.68783714h-4.4214286l-4.1506598-10.9574191z"/><path d="m83.9150398 21.6227081h4.1520337c6.5633057 0 10.4477765-3.0728185 10.4477765-9.153115 0-5.07816945-3.1483752-8.81937726-11.252114-8.81937726-.8033298 0-2.4095315.06680238-3.3476962.13351339zm0 18.7753088h-4.1524002v-39.75454816c1.8083624-.26702678 5.2243921-.60167841 7.5669642-.60167841 10.716805 0 15.4714732 4.94456463 15.4714732 12.29428937 0 5.8793411-3.3491615 10.2222273-8.6390474 11.7594133l13.1929294 16.3025239h-5.15615l-12.3230068-15.3671077h-5.9607624z"/><path d="m117.871353 37.190817c1.606202.2004071 3.14691.2672095 4.62075.2672095 11.384475 0 19.421713-5.6791167 19.421713-17.7722678 0-9.3542533-5.960854-15.90198378-20.158084-15.90198378-1.273053 0-2.479239.066711-3.884379.20040716zm-4.1524-36.61410496c2.946214-.33465163 5.691734-.5349674 8.170607-.5349674 18.215527 0 24.377351 9.42105562 24.377351 19.57730306 0 11.1576435-6.496438 21.4474043-23.841676 21.4474043-3.349528 0-5.893895-.2678492-8.706282-.6016784z"/><path d="m152.429861 33.4495635c3.213869 2.5387648 6.09459 4.0752197 10.113163 4.0752197 4.754577 0 8.840109-2.0713309 8.840109-7.2830137 0-4.7434264-3.550223-6.5477305-8.3048-8.2844098-7.10008-2.606207-10.917592-4.9445646-10.917592-11.6926109 0-6.74804635 5.62734-10.22295847 11.586728-10.22295847 3.884746 0 7.099989 1.20262573 9.50952 3.14026049v4.27617522c-3.213869-2.53858208-5.892429-3.8747212-9.50952-3.8747212-4.487014 0-7.56843 2.67227824-7.56843 6.74795496 0 3.8080102 2.278544 5.6791167 8.037146 7.6835538 7.367643 2.5387649 11.252114 5.2784852 11.252114 12.2267559 0 7.2830137-5.760067 10.8247282-12.925275 10.8247282-4.286227 0-7.702623-1.2027171-10.113163-3.0737323z"/><path d="m196.966313 40.3980352h-4.1524v-36.08005137h-13.126337v-3.60778581h30.405073v3.60778581h-13.126336z"/><path d="m225.430222 4.0509205-8.3048 21.9147469h16.67656zm-9.577578 25.389659-4.150935 10.9574191h-4.286227l15.401674-39.68783714h5.291627l15.603835 39.68783714h-4.420055l-4.152034-10.9574191z"/><path d="m277.735826 7.8596435c-2.879346-2.73972032-6.830594-4.07595083-11.049953-4.07595083-8.973936 0-16.274712 6.54782193-16.274712 16.77004923 0 10.2229584 7.300776 16.7705976 16.274712 16.7705976 4.219359 0 8.371393-1.2692454 11.250648-3.9422547v4.7443403c-3.146909 1.8709237-7.165116 2.9400361-11.183689 2.9400361-12.055443 0-20.560939-8.3520347-20.560939-20.5127193 0-12.22684723 9.107764-20.51198812 20.560939-20.51198812 4.018573 0 7.769125 1.06911234 10.982994 3.00683848z"/><path d="m308.878314.71019802h5.157891l-17.949339 19.77679638 19.222392 19.9110408h-5.358586l-19.020139-19.5097696zm-22.367836 39.68783718h4.1524v-39.68783718h-4.1524z"/><path d="m322.505207 38.1053791h.363559c.532744 0 .883022-.2068955.883022-.71198 0-.4660632-.311256-.71198-.883022-.71198-.127782 0-.27196.0123369-.363559.0253136zm0 2.2794144h-1.037276v-4.4806947c.37675-.0775858.920669-.1422863 1.389385-.1422863 1.20756 0 1.946495.5437403 1.946495 1.5922911 0 .6481019-.363559 1.1271417-.843725 1.3217003l1.271679 1.7089896h-1.233757l-1.063748-1.4760494h-.429053zm.532378 1.2563601c1.987348 0 3.427846-1.4507358 3.427846-3.4966617 0-2.0458346-1.440498-3.4965704-3.427846-3.4965704-1.984418 0-3.426381 1.4507358-3.426381 3.4965704 0 2.0459259 1.441963 3.4966617 3.426381 3.4966617zm0-7.4722719c2.28578 0 3.947033 1.7352171 3.947033 3.9756102 0 2.2403016-1.661253 3.9757929-3.947033 3.9757929-2.284224 0-3.945568-1.7354913-3.945568-3.9757929 0-2.2403931 1.661344-3.9756102 3.945568-3.9756102z"/></g></g></svg>